ISO-10303-21;
HEADER;
FILE_DESCRIPTION(('ViewDefinition[DesignTransferView]'),'2;1');
FILE_NAME('/dev/null','2026-08-23T16:19:51+00:00',(''),(''),'IfcOpenShell 0.8.5','IfcOpenShell 0.8.5','Nobody');
FILE_SCHEMA(('IFC4'));
ENDSEC;
DATA;
#1=IFCPROJECT('1AiqN0UrjF6eir4URUxO22',$,'Case Study Building',$,$,$,$,(#10),#5);
#2=IFCSIUNIT(*,.LENGTHUNIT.,$,.METRE.);
#3=IFCSIUNIT(*,.AREAUNIT.,$,.SQUARE_METRE.);
#4=IFCSIUNIT(*,.VOLUMEUNIT.,$,.CUBIC_METRE.);
#5=IFCUNITASSIGNMENT((#4,#2,#3));
#6=IFCCARTESIANPOINT((0.,0.,0.));
#7=IFCDIRECTION((0.,0.,1.));
#8=IFCDIRECTION((1.,0.,0.));
#9=IFCAXIS2PLACEMENT3D(#6,#7,#8);
#10=IFCGEOMETRICREPRESENTATIONCONTEXT($,'Model',3,1.0000000000000001E-05,#9,$);
#11=IFCGEOMETRICREPRESENTATIONSUBCONTEXT('Body','Model',*,*,*,*,#10,$,.MODEL_VIEW.,$);
#12=IFCSITE('2qSyiSM7z4OhgqYHaMrXio',$,'Site',$,$,$,$,$,$,$,$,$,$,$);
#13=IFCBUILDING('30kt0JzVL67RteGPlUUznN',$,'Case Study Building',$,$,$,$,$,$,$,$,$);
#14=IFCBUILDINGSTOREY('2ejr4XOLn9wPXi1$6hashr',$,'Ground Floor',$,$,$,$,$,$,$);
#15=IFCRELAGGREGATES('2nrktSVP5EeuK02D6cEUiZ',$,$,$,#1,(#12));
#16=IFCRELAGGREGATES('0q4J_6vufCgRv4D5F6rvGQ',$,$,$,#12,(#13));
#17=IFCRELAGGREGATES('0iEreU_Pn3uBe$Z9fT4Xgi',$,$,$,#13,(#14));
#18=IFCWALL('0myFf_DFTBLf1YPB3FfkA_',$,'SouthWall',$,$,#40,#34,$,$);
#24=IFCCARTESIANPOINTLIST2D(((0.,0.),(0.,0.20000000000000001),(10.,0.20000000000000001),(10.,0.),(0.,0.)));
#25=IFCINDEXEDPOLYCURVE(#24,$,.F.);
#26=IFCDIRECTION((0.,0.,1.));
#27=IFCARBITRARYCLOSEDPROFILEDEF(.AREA.,$,#25);
#28=IFCCARTESIANPOINT((0.,0.,0.));
#29=IFCDIRECTION((0.,0.,1.));
#30=IFCDIRECTION((1.,0.,0.));
#31=IFCAXIS2PLACEMENT3D(#28,#29,#30);
#32=IFCEXTRUDEDAREASOLID(#27,#31,#26,3.);
#33=IFCSHAPEREPRESENTATION(#11,'Body','SweptSolid',(#32));
#34=IFCPRODUCTDEFINITIONSHAPE($,$,(#33));
#35=IFCRELCONTAINEDINSPATIALSTRUCTURE('2XEqlG5AP7wvV9WUgANZDp',$,$,$,(#125,#63,#313,#18,#368,#41,#85,#107,#228,#143),#14);
#36=IFCCARTESIANPOINT((-5.,-3.,0.));
#37=IFCDIRECTION((0.,0.,1.));
#38=IFCDIRECTION((1.,0.,0.));
#39=IFCAXIS2PLACEMENT3D(#36,#37,#38);
#40=IFCLOCALPLACEMENT($,#39);
#41=IFCWALL('15wj5AEn5C1RH2pWGoRkg5',$,'EastWall',$,$,#62,#57,$,$);
#47=IFCCARTESIANPOINTLIST2D(((0.,0.),(0.,0.20000000000000001),(6.,0.20000000000000001),(6.,0.),(0.,0.)));
#48=IFCINDEXEDPOLYCURVE(#47,$,.F.);
#49=IFCDIRECTION((0.,0.,1.));
#50=IFCARBITRARYCLOSEDPROFILEDEF(.AREA.,$,#48);
#51=IFCCARTESIANPOINT((0.,0.,0.));
#52=IFCDIRECTION((0.,0.,1.));
#53=IFCDIRECTION((1.,0.,0.));
#54=IFCAXIS2PLACEMENT3D(#51,#52,#53);
#55=IFCEXTRUDEDAREASOLID(#50,#54,#49,3.);
#56=IFCSHAPEREPRESENTATION(#11,'Body','SweptSolid',(#55));
#57=IFCPRODUCTDEFINITIONSHAPE($,$,(#56));
#58=IFCCARTESIANPOINT((5.,-3.,0.));
#59=IFCDIRECTION((0.,0.,1.));
#60=IFCDIRECTION((0.,1.,0.));
#61=IFCAXIS2PLACEMENT3D(#58,#59,#60);
#62=IFCLOCALPLACEMENT($,#61);
#63=IFCWALL('1djzi$L7L88B7Vo8EhkeWo',$,'NorthWall',$,$,#84,#79,$,$);
#69=IFCCARTESIANPOINTLIST2D(((0.,0.),(0.,0.20000000000000001),(10.,0.20000000000000001),(10.,0.),(0.,0.)));
#70=IFCINDEXEDPOLYCURVE(#69,$,.F.);
#71=IFCDIRECTION((0.,0.,1.));
#72=IFCARBITRARYCLOSEDPROFILEDEF(.AREA.,$,#70);
#73=IFCCARTESIANPOINT((0.,0.,0.));
#74=IFCDIRECTION((0.,0.,1.));
#75=IFCDIRECTION((1.,0.,0.));
#76=IFCAXIS2PLACEMENT3D(#73,#74,#75);
#77=IFCEXTRUDEDAREASOLID(#72,#76,#71,3.);
#78=IFCSHAPEREPRESENTATION(#11,'Body','SweptSolid',(#77));
#79=IFCPRODUCTDEFINITIONSHAPE($,$,(#78));
#80=IFCCARTESIANPOINT((5.,3.,0.));
#81=IFCDIRECTION((0.,0.,1.));
#82=IFCDIRECTION((-1.,0.,0.));
#83=IFCAXIS2PLACEMENT3D(#80,#81,#82);
#84=IFCLOCALPLACEMENT($,#83);
#85=IFCWALL('21pzIzZj94pPDUEh0YQlEx',$,'WestWall',$,$,#106,#101,$,$);
#91=IFCCARTESIANPOINTLIST2D(((0.,0.),(0.,0.20000000000000001),(6.,0.20000000000000001),(6.,0.),(0.,0.)));
#92=IFCINDEXEDPOLYCURVE(#91,$,.F.);
#93=IFCDIRECTION((0.,0.,1.));
#94=IFCARBITRARYCLOSEDPROFILEDEF(.AREA.,$,#92);
#95=IFCCARTESIANPOINT((0.,0.,0.));
#96=IFCDIRECTION((0.,0.,1.));
#97=IFCDIRECTION((1.,0.,0.));
#98=IFCAXIS2PLACEMENT3D(#95,#96,#97);
#99=IFCEXTRUDEDAREASOLID(#94,#98,#93,3.);
#100=IFCSHAPEREPRESENTATION(#11,'Body','SweptSolid',(#99));
#101=IFCPRODUCTDEFINITIONSHAPE($,$,(#100));
#102=IFCCARTESIANPOINT((-5.,3.,0.));
#103=IFCDIRECTION((0.,0.,1.));
#104=IFCDIRECTION((0.,-1.,0.));
#105=IFCAXIS2PLACEMENT3D(#102,#103,#104);
#106=IFCLOCALPLACEMENT($,#105);
#107=IFCSLAB('3b35nzqij3Igo$c7u7yLsD',$,'GroundFloor',$,$,#124,#119,$,.FLOOR.);
#113=IFCCARTESIANPOINTLIST2D(((0.,0.),(10.4,0.),(10.4,6.4000000000000004),(0.,6.4000000000000004),(0.,0.)));
#114=IFCINDEXEDPOLYCURVE(#113,$,$);
#115=IFCDIRECTION((0.,0.,1.));
#116=IFCARBITRARYCLOSEDPROFILEDEF(.AREA.,$,#114);
#117=IFCEXTRUDEDAREASOLID(#116,$,#115,0.20000000000000001);
#118=IFCSHAPEREPRESENTATION(#11,'Body','SweptSolid',(#117));
#119=IFCPRODUCTDEFINITIONSHAPE($,$,(#118));
#120=IFCCARTESIANPOINT((-5.2000000000000002,-3.2000000000000002,-0.20000000000000001));
#121=IFCDIRECTION((0.,0.,1.));
#122=IFCDIRECTION((1.,0.,0.));
#123=IFCAXIS2PLACEMENT3D(#120,#121,#122);
#124=IFCLOCALPLACEMENT($,#123);
#125=IFCROOF('0Uz53WerX8TRJEHNU3HeM3',$,'Roof',$,$,#142,#137,$,$);
#131=IFCCARTESIANPOINTLIST2D(((0.,0.),(10.800000000000001,0.),(10.800000000000001,6.7999999999999998),(0.,6.7999999999999998),(0.,0.)));
#132=IFCINDEXEDPOLYCURVE(#131,$,$);
#133=IFCDIRECTION((0.,0.,1.));
#134=IFCARBITRARYCLOSEDPROFILEDEF(.AREA.,$,#132);
#135=IFCEXTRUDEDAREASOLID(#134,$,#133,0.14999999999999999);
#136=IFCSHAPEREPRESENTATION(#11,'Body','SweptSolid',(#135));
#137=IFCPRODUCTDEFINITIONSHAPE($,$,(#136));
#138=IFCCARTESIANPOINT((-5.4000000000000004,-3.3999999999999999,3.));
#139=IFCDIRECTION((0.,0.,1.));
#140=IFCDIRECTION((1.,0.,0.));
#141=IFCAXIS2PLACEMENT3D(#138,#139,#140);
#142=IFCLOCALPLACEMENT($,#141);
#143=IFCDOOR('2aBh3flin7qQAbQAqz8Rft',$,'EX-DOOR-001',$,$,#227,#222,$,$,$,$,$,$);
#149=IFCCARTESIANPOINTLIST2D(((0.,0.),(0.,2.1000000000000001),(1.,2.1000000000000001),(1.,0.),(0.97499999999999998,0.),(0.97499999999999998,2.0750000000000002),(0.025000000000000001,2.0750000000000002),(0.025000000000000001,0.)));
#150=IFCINDEXEDPOLYCURVE(#149,(IFCLINEINDEX((1,2,3,4,5,6,7,8,1))),$);
#151=IFCARBITRARYCLOSEDPROFILEDEF(.AREA.,$,#150);
#152=IFCCARTESIANPOINT((0.,0.025000000000000001,0.));
#153=IFCDIRECTION((0.,-1.,0.));
#154=IFCDIRECTION((1.,0.,0.));
#155=IFCAXIS2PLACEMENT3D(#152,#153,#154);
#156=IFCDIRECTION((0.,0.,-1.));
#157=IFCEXTRUDEDAREASOLID(#151,#155,#156,0.025000000000000001);
#158=IFCCARTESIANPOINTLIST2D(((0.,0.),(0.,2.1000000000000001),(1.,2.1000000000000001),(1.,0.),(0.94999999999999996,0.),(0.94999999999999996,2.0500000000000003),(0.050000000000000003,2.0500000000000003),(0.050000000000000003,0.)));
#159=IFCINDEXEDPOLYCURVE(#158,(IFCLINEINDEX((1,2,3,4,5,6,7,8,1))),$);
#160=IFCARBITRARYCLOSEDPROFILEDEF(.AREA.,$,#159);
#161=IFCCARTESIANPOINT((0.,0.,0.));
#162=IFCDIRECTION((0.,-1.,0.));
#163=IFCDIRECTION((1.,0.,0.));
#164=IFCAXIS2PLACEMENT3D(#161,#162,#163);
#165=IFCDIRECTION((0.,0.,-1.));
#166=IFCEXTRUDEDAREASOLID(#160,#164,#165,0.025000000000000001);
#167=IFCCARTESIANPOINTLIST2D(((0.,0.),(0.90000000000000002,0.),(0.90000000000000002,0.10000000000000001),(0.,0.10000000000000001)));
#168=IFCINDEXEDPOLYCURVE(#167,(IFCLINEINDEX((1,2,3,4,1))),$);
#169=IFCARBITRARYCLOSEDPROFILEDEF(.AREA.,$,#168);
#170=IFCCARTESIANPOINT((0.050000000000000003,0.,0.));
#171=IFCDIRECTION((0.,0.,1.));
#172=IFCDIRECTION((1.,0.,0.));
#173=IFCAXIS2PLACEMENT3D(#170,#171,#172);
#174=IFCDIRECTION((0.,0.,1.));
#175=IFCEXTRUDEDAREASOLID(#169,#173,#174,0.025000000000000001);
#176=IFCCARTESIANPOINTLIST2D(((0.,0.),(0.,2.125),(1.05,2.125),(1.05,0.),(0.97500000000000009,0.),(0.97500000000000009,2.0499999999999998),(0.074999999999999997,2.0499999999999998),(0.074999999999999997,0.)));
#177=IFCINDEXEDPOLYCURVE(#176,(IFCLINEINDEX((1,2,3,4,5,6,7,8,1))),$);
#178=IFCARBITRARYCLOSEDPROFILEDEF(.AREA.,$,#177);
#179=IFCCARTESIANPOINT((-0.024999999999999994,-0.0050000000000000001,0.));
#180=IFCDIRECTION((0.,-1.,0.));
#181=IFCDIRECTION((1.,0.,0.));
#182=IFCAXIS2PLACEMENT3D(#179,#180,#181);
#183=IFCDIRECTION((0.,0.,-1.));
#184=IFCEXTRUDEDAREASOLID(#178,#182,#183,0.0050000000000000001);
#185=IFCCARTESIANPOINTLIST2D(((0.,0.),(0.,2.125),(1.05,2.125),(1.05,0.),(1.,0.),(1.,2.0750000000000002),(0.049999999999999996,2.0750000000000002),(0.049999999999999996,0.)));
#186=IFCINDEXEDPOLYCURVE(#185,(IFCLINEINDEX((1,2,3,4,5,6,7,8,1))),$);
#187=IFCARBITRARYCLOSEDPROFILEDEF(.AREA.,$,#186);
#188=IFCCARTESIANPOINT((-0.024999999999999994,0.050000000000000003,0.));
#189=IFCDIRECTION((0.,-1.,0.));
#190=IFCDIRECTION((1.,0.,0.));
#191=IFCAXIS2PLACEMENT3D(#188,#189,#190);
#192=IFCDIRECTION((0.,0.,-1.));
#193=IFCEXTRUDEDAREASOLID(#187,#191,#192,0.0050000000000000001);
#194=IFCCARTESIANPOINTLIST2D(((0.,0.),(0.94999999999999996,0.),(0.94999999999999996,0.035000000000000003),(0.,0.035000000000000003)));
#195=IFCINDEXEDPOLYCURVE(#194,(IFCLINEINDEX((1,2,3,4,1))),$);
#196=IFCARBITRARYCLOSEDPROFILEDEF(.AREA.,$,#195);
#197=IFCCARTESIANPOINT((0.025000000000000001,0.025000000000000001,0.025000000000000001));
#198=IFCDIRECTION((0.,0.,1.));
#199=IFCDIRECTION((1.,0.,0.));
#200=IFCAXIS2PLACEMENT3D(#197,#198,#199);
#201=IFCDIRECTION((0.,0.,1.));
#202=IFCEXTRUDEDAREASOLID(#196,#200,#201,2.0500000000000003);
#203=IFCCARTESIANPOINTLIST2D(((0.,0.),(0.,-0.040000000000000001),(-0.12000000000000011,-0.040000000000000001),(-0.12000000000000011,-0.02),(-0.020000000000000018,-0.02),(-0.020000000000000018,0.)));
#204=IFCINDEXEDPOLYCURVE(#203,(IFCLINEINDEX((1,2,3,4,5,6,1))),$);
#205=IFCARBITRARYCLOSEDPROFILEDEF(.AREA.,$,#204);
#206=IFCCARTESIANPOINT((0.92500000000000004,0.025000000000000001,1.0149999999999999));
#207=IFCDIRECTION((0.,0.,1.));
#208=IFCDIRECTION((1.,0.,0.));
#209=IFCAXIS2PLACEMENT3D(#206,#207,#208);
#210=IFCDIRECTION((0.,0.,1.));
#211=IFCEXTRUDEDAREASOLID(#205,#209,#210,0.02);
#212=IFCEXTRUDEDAREASOLID(#213,#216,#220,0.02);
#213=IFCARBITRARYCLOSEDPROFILEDEF(.AREA.,$,#214);
#214=IFCINDEXEDPOLYCURVE(#215,(IFCLINEINDEX((1,2,3,4,5,6,1))),$);
#215=IFCCARTESIANPOINTLIST2D(((0.,0.),(0.,0.040000000000000001),(-0.12000000000000011,0.040000000000000001),(-0.12000000000000011,0.020000000000000011),(-0.020000000000000018,0.020000000000000011),(-0.020000000000000018,0.)));
#216=IFCAXIS2PLACEMENT3D(#217,#218,#219);
#217=IFCCARTESIANPOINT((0.92500000000000004,0.060000000000000005,1.0149999999999999));
#218=IFCDIRECTION((0.,0.,1.));
#219=IFCDIRECTION((1.,0.,0.));
#220=IFCDIRECTION((0.,0.,1.));
#221=IFCSHAPEREPRESENTATION(#11,'Body','SweptSolid',(#157,#166,#202,#211,#212,#175,#184,#193));
#222=IFCPRODUCTDEFINITIONSHAPE($,$,(#221));
#223=IFCCARTESIANPOINT((-2.6000000000000001,-3.0499999999999998,0.));
#224=IFCDIRECTION((0.,0.,1.));
#225=IFCDIRECTION((1.,0.,0.));
#226=IFCAXIS2PLACEMENT3D(#223,#224,#225);
#227=IFCLOCALPLACEMENT($,#226);
#228=IFCDOOR('1lCYbz4g51FQcyJyDhwz2q',$,'EX-DOOR-002',$,$,#312,#307,$,$,$,$,$,$);
#234=IFCCARTESIANPOINTLIST2D(((0.,0.),(0.,2.),(0.90000000000000002,2.),(0.90000000000000002,0.),(0.875,0.),(0.875,1.9750000000000001),(0.025000000000000001,1.9750000000000001),(0.025000000000000001,0.)));
#235=IFCINDEXEDPOLYCURVE(#234,(IFCLINEINDEX((1,2,3,4,5,6,7,8,1))),$);
#236=IFCARBITRARYCLOSEDPROFILEDEF(.AREA.,$,#235);
#237=IFCCARTESIANPOINT((0.,0.025000000000000001,0.));
#238=IFCDIRECTION((0.,-1.,0.));
#239=IFCDIRECTION((1.,0.,0.));
#240=IFCAXIS2PLACEMENT3D(#237,#238,#239);
#241=IFCDIRECTION((0.,0.,-1.));
#242=IFCEXTRUDEDAREASOLID(#236,#240,#241,0.025000000000000001);
#243=IFCCARTESIANPOINTLIST2D(((0.,0.),(0.,2.),(0.90000000000000002,2.),(0.90000000000000002,0.),(0.84999999999999998,0.),(0.84999999999999998,1.95),(0.050000000000000003,1.95),(0.050000000000000003,0.)));
#244=IFCINDEXEDPOLYCURVE(#243,(IFCLINEINDEX((1,2,3,4,5,6,7,8,1))),$);
#245=IFCARBITRARYCLOSEDPROFILEDEF(.AREA.,$,#244);
#246=IFCCARTESIANPOINT((0.,0.,0.));
#247=IFCDIRECTION((0.,-1.,0.));
#248=IFCDIRECTION((1.,0.,0.));
#249=IFCAXIS2PLACEMENT3D(#246,#247,#248);
#250=IFCDIRECTION((0.,0.,-1.));
#251=IFCEXTRUDEDAREASOLID(#245,#249,#250,0.025000000000000001);
#252=IFCCARTESIANPOINTLIST2D(((0.,0.),(0.80000000000000004,0.),(0.80000000000000004,0.10000000000000001),(0.,0.10000000000000001)));
#253=IFCINDEXEDPOLYCURVE(#252,(IFCLINEINDEX((1,2,3,4,1))),$);
#254=IFCARBITRARYCLOSEDPROFILEDEF(.AREA.,$,#253);
#255=IFCCARTESIANPOINT((0.050000000000000003,0.,0.));
#256=IFCDIRECTION((0.,0.,1.));
#257=IFCDIRECTION((1.,0.,0.));
#258=IFCAXIS2PLACEMENT3D(#255,#256,#257);
#259=IFCDIRECTION((0.,0.,1.));
#260=IFCEXTRUDEDAREASOLID(#254,#258,#259,0.025000000000000001);
#261=IFCCARTESIANPOINTLIST2D(((0.,0.),(0.,2.0249999999999999),(0.94999999999999996,2.0249999999999999),(0.94999999999999996,0.),(0.875,0.),(0.875,1.95),(0.074999999999999997,1.95),(0.074999999999999997,0.)));
#262=IFCINDEXEDPOLYCURVE(#261,(IFCLINEINDEX((1,2,3,4,5,6,7,8,1))),$);
#263=IFCARBITRARYCLOSEDPROFILEDEF(.AREA.,$,#262);
#264=IFCCARTESIANPOINT((-0.024999999999999994,-0.0050000000000000001,0.));
#265=IFCDIRECTION((0.,-1.,0.));
#266=IFCDIRECTION((1.,0.,0.));
#267=IFCAXIS2PLACEMENT3D(#264,#265,#266);
#268=IFCDIRECTION((0.,0.,-1.));
#269=IFCEXTRUDEDAREASOLID(#263,#267,#268,0.0050000000000000001);
#270=IFCCARTESIANPOINTLIST2D(((0.,0.),(0.,2.0249999999999999),(0.94999999999999996,2.0249999999999999),(0.94999999999999996,0.),(0.89999999999999991,0.),(0.89999999999999991,1.9749999999999999),(0.049999999999999996,1.9749999999999999),(0.049999999999999996,0.)));
#271=IFCINDEXEDPOLYCURVE(#270,(IFCLINEINDEX((1,2,3,4,5,6,7,8,1))),$);
#272=IFCARBITRARYCLOSEDPROFILEDEF(.AREA.,$,#271);
#273=IFCCARTESIANPOINT((-0.024999999999999994,0.050000000000000003,0.));
#274=IFCDIRECTION((0.,-1.,0.));
#275=IFCDIRECTION((1.,0.,0.));
#276=IFCAXIS2PLACEMENT3D(#273,#274,#275);
#277=IFCDIRECTION((0.,0.,-1.));
#278=IFCEXTRUDEDAREASOLID(#272,#276,#277,0.0050000000000000001);
#279=IFCCARTESIANPOINTLIST2D(((0.,0.),(0.84999999999999998,0.),(0.84999999999999998,0.035000000000000003),(0.,0.035000000000000003)));
#280=IFCINDEXEDPOLYCURVE(#279,(IFCLINEINDEX((1,2,3,4,1))),$);
#281=IFCARBITRARYCLOSEDPROFILEDEF(.AREA.,$,#280);
#282=IFCCARTESIANPOINT((0.025000000000000001,0.025000000000000001,0.025000000000000001));
#283=IFCDIRECTION((0.,0.,1.));
#284=IFCDIRECTION((1.,0.,0.));
#285=IFCAXIS2PLACEMENT3D(#282,#283,#284);
#286=IFCDIRECTION((0.,0.,1.));
#287=IFCEXTRUDEDAREASOLID(#281,#285,#286,1.9500000000000002);
#288=IFCCARTESIANPOINTLIST2D(((0.,0.),(0.,-0.040000000000000001),(-0.11999999999999988,-0.040000000000000001),(-0.11999999999999988,-0.02),(-0.020000000000000018,-0.02),(-0.020000000000000018,0.)));
#289=IFCINDEXEDPOLYCURVE(#288,(IFCLINEINDEX((1,2,3,4,5,6,1))),$);
#290=IFCARBITRARYCLOSEDPROFILEDEF(.AREA.,$,#289);
#291=IFCCARTESIANPOINT((0.82499999999999996,0.025000000000000001,1.0149999999999999));
#292=IFCDIRECTION((0.,0.,1.));
#293=IFCDIRECTION((1.,0.,0.));
#294=IFCAXIS2PLACEMENT3D(#291,#292,#293);
#295=IFCDIRECTION((0.,0.,1.));
#296=IFCEXTRUDEDAREASOLID(#290,#294,#295,0.02);
#297=IFCEXTRUDEDAREASOLID(#298,#301,#305,0.02);
#298=IFCARBITRARYCLOSEDPROFILEDEF(.AREA.,$,#299);
#299=IFCINDEXEDPOLYCURVE(#300,(IFCLINEINDEX((1,2,3,4,5,6,1))),$);
#300=IFCCARTESIANPOINTLIST2D(((0.,0.),(0.,0.040000000000000001),(-0.11999999999999988,0.040000000000000001),(-0.11999999999999988,0.020000000000000011),(-0.020000000000000018,0.020000000000000011),(-0.020000000000000018,0.)));
#301=IFCAXIS2PLACEMENT3D(#302,#303,#304);
#302=IFCCARTESIANPOINT((0.82499999999999996,0.060000000000000005,1.0149999999999999));
#303=IFCDIRECTION((0.,0.,1.));
#304=IFCDIRECTION((1.,0.,0.));
#305=IFCDIRECTION((0.,0.,1.));
#306=IFCSHAPEREPRESENTATION(#11,'Body','SweptSolid',(#242,#251,#287,#296,#297,#260,#269,#278));
#307=IFCPRODUCTDEFINITIONSHAPE($,$,(#306));
#308=IFCCARTESIANPOINT((2.3999999999999999,-3.0499999999999998,0.));
#309=IFCDIRECTION((0.,0.,1.));
#310=IFCDIRECTION((1.,0.,0.));
#311=IFCAXIS2PLACEMENT3D(#308,#309,#310);
#312=IFCLOCALPLACEMENT($,#311);
#313=IFCWINDOW('1gxq_WAqf75A2AAkbAjLkc',$,'EX-WIN-001',$,$,#367,#362,$,$,$,$,$,$);
#319=IFCCARTESIANPOINTLIST2D(((0.,0.),(1.2,0.),(1.2,1.2),(0.,1.2)));
#320=IFCINDEXEDPOLYCURVE(#319,(IFCLINEINDEX((1,2,3,4,1))),$);
#321=IFCCARTESIANPOINTLIST2D(((0.025000000000000001,0.025000000000000001),(1.1749999999999998,0.025000000000000001),(1.1749999999999998,1.1749999999999998),(0.025000000000000001,1.1749999999999998)));
#322=IFCINDEXEDPOLYCURVE(#321,(IFCLINEINDEX((1,2,3,4,1))),$);
#323=IFCARBITRARYPROFILEDEFWITHVOIDS(.AREA.,$,#320,(#322));
#324=IFCCARTESIANPOINT((0.,0.089999999999999997,0.));
#325=IFCDIRECTION((0.,-1.,0.));
#326=IFCDIRECTION((1.,0.,0.));
#327=IFCAXIS2PLACEMENT3D(#324,#325,#326);
#328=IFCDIRECTION((0.,0.,-1.));
#329=IFCEXTRUDEDAREASOLID(#323,#327,#328,0.010000000000000002);
#330=IFCCARTESIANPOINTLIST2D(((0.,0.),(1.2,0.),(1.2,1.2),(0.,1.2)));
#331=IFCINDEXEDPOLYCURVE(#330,(IFCLINEINDEX((1,2,3,4,1))),$);
#332=IFCCARTESIANPOINTLIST2D(((0.050000000000000003,0.050000000000000003),(1.1499999999999999,0.050000000000000003),(1.1499999999999999,1.1499999999999999),(0.050000000000000003,1.1499999999999999)));
#333=IFCINDEXEDPOLYCURVE(#332,(IFCLINEINDEX((1,2,3,4,1))),$);
#334=IFCARBITRARYPROFILEDEFWITHVOIDS(.AREA.,$,#331,(#333));
#335=IFCCARTESIANPOINT((0.,0.050000000000000003,0.));
#336=IFCDIRECTION((0.,-1.,0.));
#337=IFCDIRECTION((1.,0.,0.));
#338=IFCAXIS2PLACEMENT3D(#335,#336,#337);
#339=IFCDIRECTION((0.,0.,-1.));
#340=IFCEXTRUDEDAREASOLID(#334,#338,#339,0.040000000000000001);
#341=IFCCARTESIANPOINTLIST2D(((0.,0.),(1.1499999999999999,0.),(1.1499999999999999,1.1499999999999999),(0.,1.1499999999999999)));
#342=IFCINDEXEDPOLYCURVE(#341,(IFCLINEINDEX((1,2,3,4,1))),$);
#343=IFCCARTESIANPOINTLIST2D(((0.035000000000000003,0.035000000000000003),(1.1149999999999998,0.035000000000000003),(1.1149999999999998,1.1149999999999998),(0.035000000000000003,1.1149999999999998)));
#344=IFCINDEXEDPOLYCURVE(#343,(IFCLINEINDEX((1,2,3,4,1))),$);
#345=IFCARBITRARYPROFILEDEFWITHVOIDS(.AREA.,$,#342,(#344));
#346=IFCCARTESIANPOINT((0.025000000000000001,0.089999999999999997,0.025000000000000001));
#347=IFCDIRECTION((0.,-1.,0.));
#348=IFCDIRECTION((1.,0.,0.));
#349=IFCAXIS2PLACEMENT3D(#346,#347,#348);
#350=IFCDIRECTION((0.,0.,-1.));
#351=IFCEXTRUDEDAREASOLID(#345,#349,#350,0.035000000000000003);
#352=IFCINDEXEDPOLYCURVE(#353,(IFCLINEINDEX((1,2,3,4,1))),$);
#353=IFCCARTESIANPOINTLIST2D(((0.035000000000000003,0.035000000000000003),(1.1149999999999998,0.035000000000000003),(1.1149999999999998,1.1149999999999998),(0.035000000000000003,1.1149999999999998)));
#354=IFCARBITRARYCLOSEDPROFILEDEF(.AREA.,$,#352);
#355=IFCCARTESIANPOINT((0.025000000000000001,0.10250000000000001,0.025000000000000001));
#356=IFCDIRECTION((0.,-1.,0.));
#357=IFCDIRECTION((1.,0.,0.));
#358=IFCAXIS2PLACEMENT3D(#355,#356,#357);
#359=IFCDIRECTION((0.,0.,-1.));
#360=IFCEXTRUDEDAREASOLID(#354,#358,#359,0.01);
#361=IFCSHAPEREPRESENTATION(#11,'Body','SweptSolid',(#329,#340,#351,#360));
#362=IFCPRODUCTDEFINITIONSHAPE($,$,(#361));
#363=IFCCARTESIANPOINT((-0.80000000000000004,-3.0499999999999998,1.2));
#364=IFCDIRECTION((0.,0.,1.));
#365=IFCDIRECTION((1.,0.,0.));
#366=IFCAXIS2PLACEMENT3D(#363,#364,#365);
#367=IFCLOCALPLACEMENT($,#366);
#368=IFCWINDOW('2j_4Xylqz0B8hMDGbG2cLd',$,'EX-WIN-002',$,$,#422,#417,$,$,$,$,$,$);
#374=IFCCARTESIANPOINTLIST2D(((0.,0.),(1.2,0.),(1.2,1.2),(0.,1.2)));
#375=IFCINDEXEDPOLYCURVE(#374,(IFCLINEINDEX((1,2,3,4,1))),$);
#376=IFCCARTESIANPOINTLIST2D(((0.025000000000000001,0.025000000000000001),(1.1749999999999998,0.025000000000000001),(1.1749999999999998,1.1749999999999998),(0.025000000000000001,1.1749999999999998)));
#377=IFCINDEXEDPOLYCURVE(#376,(IFCLINEINDEX((1,2,3,4,1))),$);
#378=IFCARBITRARYPROFILEDEFWITHVOIDS(.AREA.,$,#375,(#377));
#379=IFCCARTESIANPOINT((0.,0.089999999999999997,0.));
#380=IFCDIRECTION((0.,-1.,0.));
#381=IFCDIRECTION((1.,0.,0.));
#382=IFCAXIS2PLACEMENT3D(#379,#380,#381);
#383=IFCDIRECTION((0.,0.,-1.));
#384=IFCEXTRUDEDAREASOLID(#378,#382,#383,0.010000000000000002);
#385=IFCCARTESIANPOINTLIST2D(((0.,0.),(1.2,0.),(1.2,1.2),(0.,1.2)));
#386=IFCINDEXEDPOLYCURVE(#385,(IFCLINEINDEX((1,2,3,4,1))),$);
#387=IFCCARTESIANPOINTLIST2D(((0.050000000000000003,0.050000000000000003),(1.1499999999999999,0.050000000000000003),(1.1499999999999999,1.1499999999999999),(0.050000000000000003,1.1499999999999999)));
#388=IFCINDEXEDPOLYCURVE(#387,(IFCLINEINDEX((1,2,3,4,1))),$);
#389=IFCARBITRARYPROFILEDEFWITHVOIDS(.AREA.,$,#386,(#388));
#390=IFCCARTESIANPOINT((0.,0.050000000000000003,0.));
#391=IFCDIRECTION((0.,-1.,0.));
#392=IFCDIRECTION((1.,0.,0.));
#393=IFCAXIS2PLACEMENT3D(#390,#391,#392);
#394=IFCDIRECTION((0.,0.,-1.));
#395=IFCEXTRUDEDAREASOLID(#389,#393,#394,0.040000000000000001);
#396=IFCCARTESIANPOINTLIST2D(((0.,0.),(1.1499999999999999,0.),(1.1499999999999999,1.1499999999999999),(0.,1.1499999999999999)));
#397=IFCINDEXEDPOLYCURVE(#396,(IFCLINEINDEX((1,2,3,4,1))),$);
#398=IFCCARTESIANPOINTLIST2D(((0.035000000000000003,0.035000000000000003),(1.1149999999999998,0.035000000000000003),(1.1149999999999998,1.1149999999999998),(0.035000000000000003,1.1149999999999998)));
#399=IFCINDEXEDPOLYCURVE(#398,(IFCLINEINDEX((1,2,3,4,1))),$);
#400=IFCARBITRARYPROFILEDEFWITHVOIDS(.AREA.,$,#397,(#399));
#401=IFCCARTESIANPOINT((0.025000000000000001,0.089999999999999997,0.025000000000000001));
#402=IFCDIRECTION((0.,-1.,0.));
#403=IFCDIRECTION((1.,0.,0.));
#404=IFCAXIS2PLACEMENT3D(#401,#402,#403);
#405=IFCDIRECTION((0.,0.,-1.));
#406=IFCEXTRUDEDAREASOLID(#400,#404,#405,0.035000000000000003);
#407=IFCINDEXEDPOLYCURVE(#408,(IFCLINEINDEX((1,2,3,4,1))),$);
#408=IFCCARTESIANPOINTLIST2D(((0.035000000000000003,0.035000000000000003),(1.1149999999999998,0.035000000000000003),(1.1149999999999998,1.1149999999999998),(0.035000000000000003,1.1149999999999998)));
#409=IFCARBITRARYCLOSEDPROFILEDEF(.AREA.,$,#407);
#410=IFCCARTESIANPOINT((0.025000000000000001,0.10250000000000001,0.025000000000000001));
#411=IFCDIRECTION((0.,-1.,0.));
#412=IFCDIRECTION((1.,0.,0.));
#413=IFCAXIS2PLACEMENT3D(#410,#411,#412);
#414=IFCDIRECTION((0.,0.,-1.));
#415=IFCEXTRUDEDAREASOLID(#409,#413,#414,0.01);
#416=IFCSHAPEREPRESENTATION(#11,'Body','SweptSolid',(#384,#395,#406,#415));
#417=IFCPRODUCTDEFINITIONSHAPE($,$,(#416));
#418=IFCCARTESIANPOINT((3.7999999999999998,-3.0499999999999998,1.2));
#419=IFCDIRECTION((0.,0.,1.));
#420=IFCDIRECTION((1.,0.,0.));
#421=IFCAXIS2PLACEMENT3D(#418,#419,#420);
#422=IFCLOCALPLACEMENT($,#421);
ENDSEC;
END-ISO-10303-21;
